# xmcd CD database file
#
# Track frame offsets:
#	163
#	4819
#	31783
#	46193
#	70540
#	85302
#	99100
#	117577
#	132363
#	151998
#	162748
#	183542
#	195763
#	207894
#	218601
#	233097
#	246152
#	259092
#
# Disc length: 3631 seconds
#
# Revision: 1
# Processed by: cddbd v1.5.2PL0 Copyright (c) Steve Scherf et al.
# Submitted via: CDex 1.51
#
DISCID=e70e2d12
DTITLE=Various Artist - The Original Jazz Box Set - CD1
DYEAR=2006
DGENRE=Jazz
TTITLE0=The Count Basie Orchestra - One O'Clock Jump
TTITLE1=Duke Ellington and His Orchestra - In The Mood
TTITLE2=Benny Goodman and His Band - Down South Camp Meetin' (Live)
TTITLE3=The Buddy Rich Big Band - Mercy, Mercy, Mercy (Live at Caesars Palace)
TTITLE4=Harry James and His Orchestra - April In Paris
TTITLE5=Billy May and His Orchestra - Charmaine
TTITLE6=Lionel Hampton and His Band - Air Mail Special
TTITLE7=Artie Shaw and His Band - Begin The Beguine
TTITLE8=Stephane Grappelli and Yehudi Menuhin - These Foolish Things
TTITLE9=The Johnny Dankworth Seven - Honeysuckle Rose
TTITLE10=Syd Lawrence and His Orchestra - St Louis Blues
TTITLE11=Humphrey Littleton and His Band - Bad Penny Blues
TTITLE12=Sid Phillips and His Band - Alexander's Ragtime Band
TTITLE13=Freddy Randall and His Band - Muscrat Rumble
TTITLE14=Joe Loss and His Orchestra - Skyliner
TTITLE15=Chris Barber's Jazz Band - When The Saints Go Marching In (Part One)
TTITLE16=Nat Gonella and His Georgians - Nagasaki
TTITLE17=Bix Beiderbecke and His Gang - Somebody Stole My Girl
EXTD=YEAR: 2006
EXTT0=
EXTT1=
EXTT2=
EXTT3=
EXTT4=
EXTT5=
EXTT6=
EXTT7=
EXTT8=
EXTT9=
EXTT10=
EXTT11=
EXTT12=
EXTT13=
EXTT14=
EXTT15=
EXTT16=
EXTT17=
PLAYORDER=
